<svg viewBox="0 0 640 430" xmlns="http://www.w3.org/2000/svg" role="img" font-family="-apple-system,BlinkMacSystemFont,'Segoe UI',Helvetica,Arial,sans-serif">
  <title>Chatbot retrieval pipeline</title>
  <desc>Question goes to Claude, which decides whether to search. On search, Vectorize and D1 FTS5 run in parallel, are fused with RRF, reranked by Haiku, and fed back for a grounded streamed answer. Without search, Claude answers directly.</desc>
  <defs>
    <marker id="arrow" viewBox="0 0 10 10" refX="8" refY="5" markerWidth="7" markerHeight="7" orient="auto-start-reverse">
      <path d="M0,0 L10,5 L0,10 z" fill="#8a8a86"/>
    </marker>
  </defs>

  <!-- connectors -->
  <g stroke="#8a8a86" stroke-width="1.5" fill="none">
    <line x1="320" y1="60" x2="320" y2="88" marker-end="url(#arrow)"/>
    <line x1="320" y1="140" x2="320" y2="160" />
    <line x1="320" y1="160" x2="170" y2="178" marker-end="url(#arrow)"/>
    <line x1="320" y1="160" x2="470" y2="178" marker-end="url(#arrow)"/>
    <line x1="170" y1="230" x2="220" y2="268" marker-end="url(#arrow)"/>
    <line x1="470" y1="230" x2="420" y2="268" marker-end="url(#arrow)"/>
    <line x1="320" y1="320" x2="320" y2="358" marker-end="url(#arrow)"/>
    <path d="M 490,115 L 600,115 L 600,385 L 472,385" stroke-dasharray="4 3" marker-end="url(#arrow)"/>
  </g>
  <text x="600" y="105" text-anchor="end" font-size="11" fill="#8a8a86">no search</text>

  <!-- question -->
  <rect x="250" y="20" width="140" height="40" rx="8" fill="#F1EFE8" stroke="#5F5E5A"/>
  <text x="320" y="45" text-anchor="middle" font-size="13" fill="#2C2C2A">question</text>

  <!-- decision -->
  <rect x="150" y="90" width="340" height="50" rx="8" fill="#EEEDFE" stroke="#534AB7"/>
  <text x="320" y="112" text-anchor="middle" font-size="13" fill="#26215C">Claude decides:</text>
  <text x="320" y="129" text-anchor="middle" font-size="13" fill="#26215C">search or answer directly</text>

  <!-- vectorize -->
  <rect x="95" y="180" width="150" height="50" rx="8" fill="#E1F5EE" stroke="#0F6E56"/>
  <text x="170" y="200" text-anchor="middle" font-size="13" fill="#04342C">Vectorize</text>
  <text x="170" y="217" text-anchor="middle" font-size="11" fill="#04342C">semantic</text>

  <!-- keyword -->
  <rect x="395" y="180" width="150" height="50" rx="8" fill="#E1F5EE" stroke="#0F6E56"/>
  <text x="470" y="200" text-anchor="middle" font-size="13" fill="#04342C">D1 FTS5</text>
  <text x="470" y="217" text-anchor="middle" font-size="11" fill="#04342C">keyword</text>

  <!-- fuse/rerank -->
  <rect x="130" y="270" width="380" height="50" rx="8" fill="#FAEEDA" stroke="#854F0B"/>
  <text x="320" y="292" text-anchor="middle" font-size="13" fill="#412402">RRF fuse &#8594; Haiku rerank</text>
  <text x="320" y="309" text-anchor="middle" font-size="11" fill="#412402">top 6 chunks</text>

  <!-- answer -->
  <rect x="170" y="360" width="300" height="50" rx="8" fill="#FAECE7" stroke="#993C1D"/>
  <text x="320" y="382" text-anchor="middle" font-size="13" fill="#4A1B0C">grounded answer</text>
  <text x="320" y="399" text-anchor="middle" font-size="11" fill="#4A1B0C">streamed</text>
</svg>
